<?xml version="1.0" encoding="UTF-8"?>
<!DOCTYPE svg
PUBLIC "-//W3C//DTD SVG 1.1//EN"
     "http://www.w3.org/Graphics/SVG/1.1/DTD/svg11.dtd">
     <!--Created with SF Symbol Generator (v1.0.0)-->

<svg version="1.1" xmlns="http://www.w3.org/2000/svg" xmlns:xlink="http://www.w3.org/1999/xlink" width="3300" height="2200">
<!--glyph: "frame5.medium", point size: 100.0-->
<style>.SFSymbolsPreviewWireframe {fill:none;opacity:1.0;stroke:black;stroke-width:0.5}
</style>
<g id="Notes">
<rect height="2200" id="artboard" style="fill:white;opacity:1" width="3300" x="0" y="0"/>
<line style="fill:none;stroke:black;opacity:1;stroke-width:0.5;" x1="263" x2="3036" y1="292" y2="292"/>
<text style="stroke:none;fill:black;font-family:sans-serif;font-size:13;font-weight:bold;" transform="matrix(1 0 0 1 263 322)">Weight/Scale Variations</text>
<text style="stroke:none;fill:black;font-family:sans-serif;font-size:13;text-anchor:middle;" transform="matrix(1 0 0 1 559.711 322)">Ultralight</text>
<text style="stroke:none;fill:black;font-family:sans-serif;font-size:13;text-anchor:middle;" transform="matrix(1 0 0 1 856.422 322)">Thin</text>
<text style="stroke:none;fill:black;font-family:sans-serif;font-size:13;text-anchor:middle;" transform="matrix(1 0 0 1 1153.13 322)">Light</text>
<text style="stroke:none;fill:black;font-family:sans-serif;font-size:13;text-anchor:middle;" transform="matrix(1 0 0 1 1449.84 322)">Regular</text>
<text style="stroke:none;fill:black;font-family:sans-serif;font-size:13;text-anchor:middle;" transform="matrix(1 0 0 1 1746.56 322)">Medium</text>
<text style="stroke:none;fill:black;font-family:sans-serif;font-size:13;text-anchor:middle;" transform="matrix(1 0 0 1 2043.27 322)">Semibold</text>
<text style="stroke:none;fill:black;font-family:sans-serif;font-size:13;text-anchor:middle;" transform="matrix(1 0 0 1 2339.98 322)">Bold</text>
<text style="stroke:none;fill:black;font-family:sans-serif;font-size:13;text-anchor:middle;" transform="matrix(1 0 0 1 2636.69 322)">Heavy</text>
<text style="stroke:none;fill:black;font-family:sans-serif;font-size:13;text-anchor:middle;" transform="matrix(1 0 0 1 2933.4 322)">Black</text>
<line style="fill:none;stroke:black;opacity:1;stroke-width:0.5;" x1="263" x2="3036" y1="1903" y2="1903"/>
<text style="stroke:none;fill:black;font-family:sans-serif;font-size:13;font-weight:bold;" transform="matrix(1 0 0 1 263 1953)">Design Variations</text>
<text style="stroke:none;fill:black;font-family:sans-serif;font-size:13;" transform="matrix(1 0 0 1 263 1971)">Symbols are supported in up to nine weights and three scales.</text>
<text style="stroke:none;fill:black;font-family:sans-serif;font-size:13;" transform="matrix(1 0 0 1 263 1989)">For optimal layout with text and other symbols, vertically align</text>
<text style="stroke:none;fill:black;font-family:sans-serif;font-size:13;" transform="matrix(1 0 0 1 263 2007)">symbols with the adjacent text.</text>
<line style="fill:none;stroke:#00AEEF;stroke-width:0.5;opacity:1.0;" x1="776" x2="776" y1="1919" y2="1933"/>
<text style="stroke:none;fill:black;font-family:sans-serif;font-size:13;font-weight:bold;" transform="matrix(1 0 0 1 776 1953)">Margins</text>
<text style="stroke:none;fill:black;font-family:sans-serif;font-size:13;" transform="matrix(1 0 0 1 776 1971)">Leading and trailing margins on the left and right side of each symbol</text>
<text style="stroke:none;fill:black;font-family:sans-serif;font-size:13;" transform="matrix(1 0 0 1 776 1989)">can be adjusted by modifying the x-location of the margin guidelines.</text>
<text style="stroke:none;fill:black;font-family:sans-serif;font-size:13;" transform="matrix(1 0 0 1 776 2007)">Modifications are automatically applied proportionally to all</text>
<text style="stroke:none;fill:black;font-family:sans-serif;font-size:13;" transform="matrix(1 0 0 1 776 2025)">scales and weights.</text>
<text style="stroke:none;fill:black;font-family:sans-serif;font-size:13;font-weight:bold;" transform="matrix(1 0 0 1 1289 1953)">Exporting</text>
<text style="stroke:none;fill:black;font-family:sans-serif;font-size:13;" transform="matrix(1 0 0 1 1289 1971)">Symbols should be outlined when exporting to ensure the</text>
<text style="stroke:none;fill:black;font-family:sans-serif;font-size:13;" transform="matrix(1 0 0 1 1289 1989)">design is preserved when submitting to Xcode.</text>
<text id="template-version" style="stroke:none;fill:black;font-family:sans-serif;font-size:13;text-anchor:end;" transform="matrix(1 0 0 1 3036 1933)">Template v.5.0</text>
<text style="stroke:none;fill:black;font-family:sans-serif;font-size:13;text-anchor:end;" transform="matrix(1 0 0 1 3036 1951)">Requires Xcode 15 or greater</text>
<text id="descriptive-name" style="stroke:none;fill:black;font-family:sans-serif;font-size:13;text-anchor:end;" transform="matrix(1 0 0 1 3036 1969)">Generated from frame5</text>
<text style="stroke:none;fill:black;font-family:sans-serif;font-size:13;text-anchor:end;" transform="matrix(1 0 0 1 3036 1987)">Typeset at 100.0 points</text>
<text style="stroke:none;fill:black;font-family:sans-serif;font-size:13;" transform="matrix(1 0 0 1 263 726)">Small</text>
<text style="stroke:none;fill:black;font-family:sans-serif;font-size:13;" transform="matrix(1 0 0 1 263 1156)">Medium</text>
<text style="stroke:none;fill:black;font-family:sans-serif;font-size:13;" transform="matrix(1 0 0 1 263 1586)">Large</text>
</g>
<g id="Guides">
<g id="H-reference" style="fill:#27AAE1;stroke:none;" transform="matrix(1 0 0 1 339 696)">
 <path d="M0.993654 0L3.63775 0L29.3281-67.1323L30.0303-67.1323L30.0303-70.459L28.1226-70.459ZM11.6885-24.4799L46.9815-24.4799L46.2315-26.7285L12.4385-26.7285ZM55.1196 0L57.7637 0L30.6382-70.459L29.4326-70.459L29.4326-67.1323Z"/>
</g>
<line id="Baseline-S" style="fill:none;stroke:#27AAE1;opacity:1;stroke-width:0.5;" x1="263" x2="3036" y1="696" y2="696"/>
<line id="Capline-S" style="fill:none;stroke:#27AAE1;opacity:1;stroke-width:0.5;" x1="263" x2="3036" y1="625.541" y2="625.541"/>
<g id="H-reference" style="fill:#27AAE1;stroke:none;" transform="matrix(1 0 0 1 339 1126)">
 <path d="M0.993654 0L3.63775 0L29.3281-67.1323L30.0303-67.1323L30.0303-70.459L28.1226-70.459ZM11.6885-24.4799L46.9815-24.4799L46.2315-26.7285L12.4385-26.7285ZM55.1196 0L57.7637 0L30.6382-70.459L29.4326-70.459L29.4326-67.1323Z"/>
</g>
<line id="Baseline-M" style="fill:none;stroke:#27AAE1;opacity:1;stroke-width:0.5;" x1="263" x2="3036" y1="1126" y2="1126"/>
<line id="Capline-M" style="fill:none;stroke:#27AAE1;opacity:1;stroke-width:0.5;" x1="263" x2="3036" y1="1055.54" y2="1055.54"/>
<g id="H-reference" style="fill:#27AAE1;stroke:none;" transform="matrix(1 0 0 1 339 1556)">
 <path d="M0.993654 0L3.63775 0L29.3281-67.1323L30.0303-67.1323L30.0303-70.459L28.1226-70.459ZM11.6885-24.4799L46.9815-24.4799L46.2315-26.7285L12.4385-26.7285ZM55.1196 0L57.7637 0L30.6382-70.459L29.4326-70.459L29.4326-67.1323Z"/>
</g>
<line id="Baseline-L" style="fill:none;stroke:#27AAE1;opacity:1;stroke-width:0.5;" x1="263" x2="3036" y1="1556" y2="1556"/>
<line id="Capline-L" style="fill:none;stroke:#27AAE1;opacity:1;stroke-width:0.5;" x1="263" x2="3036" y1="1485.54" y2="1485.54"/>
<line id="left-margin-Ultralight-S" style="fill:none;stroke:#00AEEF;stroke-width:0.5;opacity:1.0;" x1="513.711" x2="513.711" y1="600.785" y2="720.121"/>
<line id="right-margin-Ultralight-S" style="fill:none;stroke:#00AEEF;stroke-width:0.5;opacity:1.0;" x1="605.711" x2="605.711" y1="600.785" y2="720.121"/>
<line id="left-margin-Regular-S" style="fill:none;stroke:#00AEEF;stroke-width:0.5;opacity:1.0;" x1="1403.84" x2="1403.84" y1="600.785" y2="720.121"/>
<line id="right-margin-Regular-S" style="fill:none;stroke:#00AEEF;stroke-width:0.5;opacity:1.0;" x1="1495.84" x2="1495.84" y1="600.785" y2="720.121"/>
<line id="left-margin-Black-S" style="fill:none;stroke:#00AEEF;stroke-width:0.5;opacity:1.0;" x1="2887.4" x2="2887.4" y1="600.785" y2="720.121"/>
<line id="right-margin-Black-S" style="fill:none;stroke:#00AEEF;stroke-width:0.5;opacity:1.0;" x1="2979.4" x2="2979.4" y1="600.785" y2="720.121"/>
</g>
<g id="Symbols">
<g id="Ultralight-S" transform="matrix(1 0 0 1 513.711 614.7705)">
<svg width="92" height="92" viewBox="0 0 92 92" fill="none" xmlns="http://www.w3.org/2000/svg">
<g id="Frame 5">
<g clip-path="url(#clip0_5_26)">
<path id="Vector" d="M91.6887 61.4409C69.2862 75.8308 32.255 60.1481 37.2527 37.6438C41.6343 17.9142 65.1565 23.5846 70.5068 26.2471C75.8571 28.9095 72.6191 14.7676 60.2121 10.523C43.4059 4.77297 22.8342 5.99205 16.3316 34.8751C11.8878 54.6135 20.5916 82.2863 54.0116 82.6553C87.4316 83.0242 91.6887 61.4409 91.6887 61.4409Z" fill="#C8C8C8"/>
<path id="Vector_2" d="M99.2809 66.0751C99.2809 59.7215 91.1235 59.1649 87.4328 62.7621C78.5645 71.4043 65.5079 74.6403 48.0438 71.2326C17.6831 65.3112 17.4135 29.7417 38.1714 19.5955C49.4004 14.1064 62.7236 20.6051 67.7887 24.4954C72.1961 27.8795 87.2175 31.5668 86.7761 25.9178C82.8927 14.9292 55.6621 -11.0593 24.0662 5.22443C-7.52668 21.5081 -7.31638 58.2589 -7.31638 64.9204V86.3853C-7.31638 92.9254 -1.94327 98.0711 4.59984 98.0711H87.5364C94.0796 98.0711 99.3164 92.9254 99.3164 86.3853C99.3164 86.3853 99.3046 66.0929 99.2809 66.0751Z" fill="white"/>
</g>
</g>
<defs>
<clipPath id="clip0_5_26">
<rect width="92" height="92" rx="46" fill="white"/>
</clipPath>
</defs>
</svg>

</g>
<g id="Regular-S" transform="matrix(1 0 0 1 1403.84 614.7705)">
<svg width="92" height="92" viewBox="0 0 92 92" fill="none" xmlns="http://www.w3.org/2000/svg">
<g id="Frame 5">
<g clip-path="url(#clip0_5_26)">
<path id="Vector" d="M91.6887 61.4409C69.2862 75.8308 32.255 60.1481 37.2527 37.6438C41.6343 17.9142 65.1565 23.5846 70.5068 26.2471C75.8571 28.9095 72.6191 14.7676 60.2121 10.523C43.4059 4.77297 22.8342 5.99205 16.3316 34.8751C11.8878 54.6135 20.5916 82.2863 54.0116 82.6553C87.4316 83.0242 91.6887 61.4409 91.6887 61.4409Z" fill="#C8C8C8"/>
<path id="Vector_2" d="M99.2809 66.0751C99.2809 59.7215 91.1235 59.1649 87.4328 62.7621C78.5645 71.4043 65.5079 74.6403 48.0438 71.2326C17.6831 65.3112 17.4135 29.7417 38.1714 19.5955C49.4004 14.1064 62.7236 20.6051 67.7887 24.4954C72.1961 27.8795 87.2175 31.5668 86.7761 25.9178C82.8927 14.9292 55.6621 -11.0593 24.0662 5.22443C-7.52668 21.5081 -7.31638 58.2589 -7.31638 64.9204V86.3853C-7.31638 92.9254 -1.94327 98.0711 4.59984 98.0711H87.5364C94.0796 98.0711 99.3164 92.9254 99.3164 86.3853C99.3164 86.3853 99.3046 66.0929 99.2809 66.0751Z" fill="white"/>
</g>
</g>
<defs>
<clipPath id="clip0_5_26">
<rect width="92" height="92" rx="46" fill="white"/>
</clipPath>
</defs>
</svg>

</g>
<g id="Black-S" transform="matrix(1 0 0 1 2887.4 614.7705)">
<svg width="92" height="92" viewBox="0 0 92 92" fill="none" xmlns="http://www.w3.org/2000/svg">
<g id="Frame 5">
<g clip-path="url(#clip0_5_26)">
<path id="Vector" d="M91.6887 61.4409C69.2862 75.8308 32.255 60.1481 37.2527 37.6438C41.6343 17.9142 65.1565 23.5846 70.5068 26.2471C75.8571 28.9095 72.6191 14.7676 60.2121 10.523C43.4059 4.77297 22.8342 5.99205 16.3316 34.8751C11.8878 54.6135 20.5916 82.2863 54.0116 82.6553C87.4316 83.0242 91.6887 61.4409 91.6887 61.4409Z" fill="#C8C8C8"/>
<path id="Vector_2" d="M99.2809 66.0751C99.2809 59.7215 91.1235 59.1649 87.4328 62.7621C78.5645 71.4043 65.5079 74.6403 48.0438 71.2326C17.6831 65.3112 17.4135 29.7417 38.1714 19.5955C49.4004 14.1064 62.7236 20.6051 67.7887 24.4954C72.1961 27.8795 87.2175 31.5668 86.7761 25.9178C82.8927 14.9292 55.6621 -11.0593 24.0662 5.22443C-7.52668 21.5081 -7.31638 58.2589 -7.31638 64.9204V86.3853C-7.31638 92.9254 -1.94327 98.0711 4.59984 98.0711H87.5364C94.0796 98.0711 99.3164 92.9254 99.3164 86.3853C99.3164 86.3853 99.3046 66.0929 99.2809 66.0751Z" fill="white"/>
</g>
</g>
<defs>
<clipPath id="clip0_5_26">
<rect width="92" height="92" rx="46" fill="white"/>
</clipPath>
</defs>
</svg>

</g>
</g>
</svg>